<?xml version="1.0" encoding="iso-8859-1"?>
<!-- Generator: Adobe Illustrator 19.0.0, SVG Export Plug-In . SVG Version: 6.00 Build 0)  -->
<svg version="1.1" id="Layer_1" xmlns="http://www.w3.org/2000/svg" xmlns:xlink="http://www.w3.org/1999/xlink" x="0px" y="0px"
	 viewBox="0 0 512 512" style="enable-background:new 0 0 512 512;" xml:space="preserve">
<g>
	<g>
		<path d="M264.533,94.72v7.68c0,5.12-3.413,8.533-8.533,8.533c-5.12,0-8.533-3.413-8.533-8.533v-7.68
			c-33.28,4.267-59.733,33.28-59.733,67.413c0,34.987,26.453,63.147,59.733,67.413v-7.68c0-5.12,3.413-8.533,8.533-8.533
			c5.12,0,8.533,3.413,8.533,8.533v7.68c33.28-4.267,59.733-33.28,59.733-67.413C324.267,127.147,298.667,98.987,264.533,94.72z
			 M230.4,179.2c-9.387,0-17.067-7.68-17.067-17.067c0-9.387,7.68-17.067,17.067-17.067c9.387,0,17.067,7.68,17.067,17.067
			C247.467,171.52,239.787,179.2,230.4,179.2z M281.6,179.2c-9.387,0-17.067-7.68-17.067-17.067c0-9.387,7.68-17.067,17.067-17.067
			c9.387,0,17.067,7.68,17.067,17.067C298.667,171.52,290.987,179.2,281.6,179.2z"/>
	</g>
</g>
<g>
	<g>
		<path d="M366.933,0H145.067c-28.16,0-51.2,23.04-51.2,51.2v221.867c0,28.16,23.04,51.2,51.2,51.2h51.2v17.067h-8.533
			c-5.12,0-8.533,3.413-8.533,8.533c0,23.893,5.973,46.933,17.92,68.267c10.24,17.92,16.213,38.4,16.213,59.733
			c0,18.773,15.36,34.133,34.133,34.133h17.067c18.773,0,34.133-15.36,34.133-34.133c0-20.48,5.12-41.813,16.213-59.733
			c11.947-20.48,17.92-44.373,17.92-68.267c0-5.12-3.413-8.533-8.533-8.533h-8.533v-17.067h51.2c28.16,0,51.2-23.04,51.2-51.2V51.2
			C418.133,23.04,395.093,0,366.933,0z M256,247.467c-46.933,0-85.333-38.4-85.333-85.333c0-46.933,38.4-85.333,85.333-85.333
			s85.333,38.4,85.333,85.333C341.333,209.067,302.933,247.467,256,247.467z M212.48,257.707c0.853,0,1.707-0.853,3.413-0.853
			C215.04,256.853,214.187,257.707,212.48,257.707z M230.4,315.733v25.6h-17.067v-25.6V281.6c0-5.12,3.413-8.533,8.533-8.533
			s8.533,3.413,8.533,8.533V315.733z M238.064,261.536c0.645,0.43,1.293,0.861,1.723,1.291
			C239.275,262.827,238.759,262.211,238.064,261.536z M240.64,263.68c0.853,0.853,1.707,1.707,2.56,2.56
			C242.347,266.24,241.493,264.533,240.64,263.68z M245.76,270.507c-0.853-0.853-1.707-1.707-1.707-2.56
			C244.907,268.8,244.907,269.653,245.76,270.507z M264.533,341.333h-17.067v-17.067h17.067V341.333z M264.533,290.133h-17.067
			V281.6c0-3.049-0.681-6.093-1.435-8.533h19.323c-0.145,2.441-0.822,5.485-0.822,8.533V290.133z M298.667,315.733v25.6H281.6v-25.6
			V281.6c0-5.12,3.413-8.533,8.533-8.533c5.12,0,8.533,3.413,8.533,8.533V315.733z M306.33,261.536
			c0.645,0.43,1.293,0.861,1.723,1.291C307.542,262.827,307.026,262.211,306.33,261.536z M308.907,263.68
			c0.853,0.853,1.707,1.707,2.56,2.56C310.613,266.24,309.76,264.533,308.907,263.68z M314.027,270.507
			c-0.853-0.853-1.707-1.707-1.707-2.56C313.173,268.8,313.173,269.653,314.027,270.507z M384,260.267
			c0,16.213-13.653,29.867-29.867,29.867h-38.4V281.6c0-3.049-0.681-6.093-1.435-8.533h39.835c6.827,0,12.8-5.973,12.8-12.8V64
			c0-6.827-5.973-12.8-12.8-12.8H157.867c-6.827,0-12.8,5.973-12.8,12.8v196.267c0,6.827,5.973,12.8,12.8,12.8h39.835
			c-0.753,2.441-1.435,5.485-1.435,8.533v8.533h-38.4c-16.213,0-29.867-13.653-29.867-29.867V64
			c0-16.213,13.653-29.867,29.867-29.867h196.267C370.347,34.133,384,47.787,384,64V260.267z"/>
	</g>
</g>
<g>
</g>
<g>
</g>
<g>
</g>
<g>
</g>
<g>
</g>
<g>
</g>
<g>
</g>
<g>
</g>
<g>
</g>
<g>
</g>
<g>
</g>
<g>
</g>
<g>
</g>
<g>
</g>
<g>
</g>
</svg>
